<svg id="Layer_1" data-name="Layer 1" xmlns="http://www.w3.org/2000/svg" viewBox="0 0 489.01 366.8"><defs></defs><g id="Mark"><path fill="#02314B" d="M498.1,246.29v33.58h-3.23v-6.53a30.14,30.14,0,0,0-6.63-10.42,33.23,33.23,0,0,0-19.38-9.21,37.62,37.62,0,0,0-12.52.45A34.36,34.36,0,0,0,448,257c-10.17,5-18.95,15.94-18.26,25.67.15,2.07.59,8.19,5.13,11.32a10.38,10.38,0,0,0,4.06,1.62,8,8,0,0,1-1.55-3.24,7.94,7.94,0,0,1-.2-1.77,8.09,8.09,0,0,1,8.07-8.08c4.74,0,8,4.25,8.09,8.08.14,5.23-5.54,8-5.94,8.22-5.64,2.66-11.87-.76-14.34-2.12a29.06,29.06,0,0,1-13.78-18.05c-3.9-17,11.36-42.84,34.8-44.67,17.67-1.38,35.39,11.42,40.84,30.89v-18.6Z" transform="translate(-248.15 -233.9)"></path><path fill="#02314B" d="M487.84,278.87v24.6h-3.23a16.24,16.24,0,0,0-2.1-6.55c-4.13-7-12.35-8.25-13.65-8.42v25.56a20.69,20.69,0,0,0,12.89,11.3H439a43.84,43.84,0,0,1-11.11-11.47,29.32,29.32,0,0,0,4.92,4.18c1.39.93,7.35,4.94,11.68,4.44,5.74-.66,11.18-9.55,11.86-21.74V258.86a33.12,33.12,0,0,1,12.52-.51v27.53h2.3a24.06,24.06,0,0,0,8.25-2.92,23.6,23.6,0,0,0,5.2-4.09Z" transform="translate(-248.15 -233.9)"></path><path fill="#02314B" d="M494.81,318.59V285H498v6.54A30.31,30.31,0,0,0,504.67,302a33.17,33.17,0,0,0,19.38,9.21,37.62,37.62,0,0,0,12.52-.44,34.53,34.53,0,0,0,8.39-2.87c10.17-5,18.95-15.94,18.26-25.66-.15-2.07-.59-8.2-5.13-11.32a10.23,10.23,0,0,0-4.06-1.62,8.09,8.09,0,0,1,1.55,3.24,8.47,8.47,0,0,1,.2,1.76,8.08,8.08,0,0,1-8.07,8.08c-4.75,0-8-4.24-8.09-8.08-.15-5.23,5.54-8,5.94-8.21,5.64-2.66,11.87.76,14.34,2.11a29.05,29.05,0,0,1,13.78,18.06c3.9,17-11.36,42.83-34.8,44.66C521.21,332.26,503.49,319.46,498,300v18.59Z" transform="translate(-248.15 -233.9)"></path><path fill="#02314B" d="M505.07,286V261.41h3.23a16.07,16.07,0,0,0,2.1,6.56c4.13,7,12.35,8.24,13.65,8.42V250.83a20.63,20.63,0,0,0-4.13-6,21.16,21.16,0,0,0-8.76-5.28h42.76A44.16,44.16,0,0,1,565,251a30,30,0,0,0-4.93-4.18c-1.39-.93-7.34-4.93-11.67-4.43-5.74.66-11.18,9.54-11.86,21.74V306a33,33,0,0,1-7.58.88,32.28,32.28,0,0,1-4.94-.37V279h-2.3a24.2,24.2,0,0,0-8.25,2.92,23.33,23.33,0,0,0-5.2,4.1Z" transform="translate(-248.15 -233.9)"></path></g><path fill="#02314B" d="M277.58,445.36c-2.59,0-3.55.95-3.55,3.55v24.57c0,10.78,4.1,13.92,13.11,13.92,1.22,0,1.91.54,1.91,1.36s-.69,1.37-1.91,1.37c-5.87,0-12.15-.41-18-.41s-12.15.41-18,.41c-1.23,0-1.91-.68-1.91-1.37s.68-1.36,1.91-1.36c9,0,13.11-3.14,13.11-13.92V411.24c0-10.79-4.1-13.92-13.11-13.92-1.23,0-1.91-.55-1.91-1.37s.68-1.36,1.91-1.36c5.87,0,12.15.41,18,.41,18,0,39.17,0,55.82-.41,5.46-.14,7.37-.82,8.6-2.87.28-.41.55-.68,1-.68a1,1,0,0,1,1.09.82c2.73,8.73,5.6,16.92,8.74,24.7a3.69,3.69,0,0,1,.27,1.37,1,1,0,0,1-1.09.95c-.69,0-1.23-.55-1.78-1.64-6-12.83-12-15.56-27.84-15.56H277.58c-2.59,0-3.55,1-3.55,3.55v30c0,2.59,1,3.55,3.55,3.55h26.89c9,0,14.33-4.51,14.33-12.42,0-1.23.55-1.91,1.37-1.91s1.36.68,1.36,1.91c0,5.87-.41,9.82-.41,15.69s.41,9.83.41,15.7c0,1.23-.68,1.91-1.36,1.91s-1.37-.68-1.37-1.91c0-7.92-5.32-12.42-14.33-12.42Z" transform="translate(-248.15 -233.9)"></path><path fill="#02314B" d="M437.69,483c15.83,0,24-5.73,30.3-16.92.55-1.1,1.23-1.78,2.05-1.78a1.19,1.19,0,0,1,1.22,1.09,3.08,3.08,0,0,1-.4,1.23c-4.51,8.74-8.47,17.2-12.15,26.07-.14.55-.41,1-1,1a1.22,1.22,0,0,1-1.09-.69c-1.23-2-3.14-2.73-8.6-2.86-17.88-.41-40.81-.41-59.78-.41-5.87,0-12.15.41-18,.41-1.23,0-1.91-.68-1.91-1.37s.68-1.36,1.91-1.36c9,0,13.11-3.14,13.11-13.92V411.24c0-10.79-4.1-13.92-13.11-13.92-1.23,0-1.91-.55-1.91-1.37s.68-1.36,1.91-1.36c5.87,0,12.15.41,18,.41,18.56,0,40.67,0,58-.41,5.46-.14,7.37-.82,8.6-2.87.27-.41.54-.68.95-.68a1,1,0,0,1,1.09.82c2.73,8.73,5.6,16.92,8.74,24.7a3.69,3.69,0,0,1,.27,1.37,1,1,0,0,1-1.09.95c-.68,0-1.23-.55-1.77-1.64-6-12.83-12-15.56-27.85-15.56H396.74c-2.59,0-3.55,1-3.55,3.55v28.66c0,2.6,1,3.55,3.55,3.55h29.07c9,0,14.34-4.5,14.34-12.42,0-1.23.54-1.91,1.36-1.91s1.37.68,1.37,1.91c0,5.87-.41,9.83-.41,15.7s.41,9.83.41,15.7c0,1.22-.69,1.91-1.37,1.91s-1.36-.69-1.36-1.91c0-7.92-5.33-12.43-14.34-12.43H396.74c-2.59,0-3.55,1-3.55,3.55V475.8c0,5.32,1.91,7.23,7.24,7.23Z" transform="translate(-248.15 -233.9)"></path><path fill="#02314B" d="M512.49,411.24c0-10.79-4.09-13.92-13.1-13.92-1.23,0-1.91-.55-1.91-1.37s.68-1.36,1.91-1.36c5.87,0,12.14.41,18,.41s12.15-.41,18-.41c1.23,0,1.91.68,1.91,1.36s-.68,1.37-1.91,1.37c-9,0-13.1,3.13-13.1,13.92v62.24c0,10.78,4.09,13.92,13.1,13.92,1.23,0,1.91.54,1.91,1.36s-.68,1.37-1.91,1.37c-5.87,0-12.15-.41-18-.41s-12.14.41-18,.41c-1.23,0-1.91-.68-1.91-1.37s.68-1.36,1.91-1.36c9,0,13.1-3.14,13.1-13.92Z" transform="translate(-248.15 -233.9)"></path><path fill="#02314B" d="M621,450c-1.64-2.18-3.68-3.28-7.37-3.28H590.29a2.17,2.17,0,0,0-2.46,2.46v24.3c0,10.78,4.1,13.92,13.11,13.92,1.23,0,1.91.54,1.91,1.36s-.68,1.37-1.91,1.37c-5.87,0-12.15-.41-18-.41s-12.15.41-18,.41c-1.22,0-1.91-.68-1.91-1.37s.69-1.36,1.91-1.36c9,0,13.11-3.14,13.11-13.92V411.24c0-10.79-4.1-13.92-13.11-13.92-1.22,0-1.91-.55-1.91-1.37s.69-1.36,1.91-1.36c5.87,0,12.15.41,18,.41,13.38,0,27.84-.41,41.22-.41,26.89,0,39.58,8.32,39.58,26.2,0,17.61-12,24.84-31.25,25.8-.82,0-1.23.41-1.23,1a1.51,1.51,0,0,0,.41,1.09l20.06,24.57c8.19,10,13.24,14.2,21.57,14.2,1.22,0,1.91.54,1.91,1.36s-.69,1.37-1.91,1.37c-6,0-12.29-.41-18.29-.41s-12.29.41-18.29.41c-1.23,0-1.91-.68-1.91-1.37s.68-1.36,1.91-1.36c5.73,0,8.32-1.09,8.32-3.82,0-2.32-2.18-6-6.27-11.2Zm4.64-10.37c18.84,0,26.89-5.19,26.89-18.16,0-15.42-10.92-19.79-29.89-19.79H591.38c-2.59,0-3.55,1-3.55,3.55v31.94a2.17,2.17,0,0,0,2.46,2.46Z" transform="translate(-248.15 -233.9)"></path><path fill="#02314B" d="M712.32,411.24c0-10.79-4.1-13.92-13.11-13.92-1.22,0-1.91-.55-1.91-1.37s.69-1.36,1.91-1.36c5.87,0,12.15.41,18,.41s12.15-.41,18-.41c1.23,0,1.91.68,1.91,1.36s-.68,1.37-1.91,1.37c-9,0-13.11,3.13-13.11,13.92v62.24c0,10.78,4.1,13.92,13.11,13.92,1.23,0,1.91.54,1.91,1.36s-.68,1.37-1.91,1.37c-5.87,0-12.15-.41-18-.41s-12.15.41-18,.41c-1.22,0-1.91-.68-1.91-1.37s.69-1.36,1.91-1.36c9,0,13.11-3.14,13.11-13.92Z" transform="translate(-248.15 -233.9)"></path><path fill="#02314B" d="M346.78,581.27c0-.32-.13-.55-.3-.55s-.29.1-.45.36l-9.36,17.56c-.13.29-.23.49-.52.49s-.36-.17-.52-.49l-9.32-17.56c-.17-.26-.33-.36-.46-.36s-.3.23-.3.55v14.36c0,2.61,1.15,3.5,3.18,3.5.29,0,.49.16.49.36s-.2.36-.49.36c-1.57,0-3.21-.1-4.81-.1s-3.2.1-4.77.1c-.3,0-.49-.17-.49-.36s.19-.36.49-.36c2,0,3.17-.89,3.17-3.5V581.17c0-2.61-1.11-3.49-3.17-3.49-.3,0-.49-.17-.49-.36s.19-.36.49-.36c1.24,0,2.58.09,3.85.09s2.69-.06,4-.06a1.28,1.28,0,0,1,1.37.75l7.75,14.91a.22.22,0,0,0,.4,0l7.75-14.91a1.26,1.26,0,0,1,1.37-.75c1.28,0,2.71.06,4,.06s2.62-.09,3.89-.09c.33,0,.52.16.52.36s-.19.36-.52.36c-2,0-3.14.88-3.14,3.49v14.46c0,2.61,1.11,3.5,3.14,3.5.33,0,.52.16.52.36s-.19.36-.52.36c-1.6,0-3.3-.1-4.94-.1s-3.3.1-4.93.1c-.3,0-.49-.17-.49-.36s.19-.36.49-.36c2,0,3.17-.89,3.17-3.5Z" transform="translate(-248.15 -233.9)"></path><path fill="#02314B" d="M392.86,581.17c0-2.61-1.14-3.49-3.17-3.49-.3,0-.49-.17-.49-.36s.19-.36.49-.36c1.63,0,3.33.09,4.94.09s3.33-.09,4.93-.09c.33,0,.53.16.53.36s-.2.36-.53.36c-2,0-3.14.88-3.14,3.49v14.46c0,2.61,1.12,3.5,3.14,3.5.33,0,.53.16.53.36s-.2.36-.53.36c-1.6,0-3.3-.1-4.93-.1s-3.31.1-4.94.1c-.3,0-.49-.17-.49-.36s.19-.36.49-.36c2,0,3.17-.89,3.17-3.5Z" transform="translate(-248.15 -233.9)"></path><path fill="#02314B" d="M451.1,597.33c3.73,0,5.53-1.54,7.2-4.15.16-.3.33-.43.52-.43a.27.27,0,0,1,.26.29.77.77,0,0,1-.06.33,63.2,63.2,0,0,0-2.68,7c-.07.19-.17.36-.33.36s-.23-.07-.36-.23c-.26-.43-.65-.59-2-.62-5.1-.1-9.55-.1-13-.1-1.61,0-3.31.1-4.94.1-.3,0-.49-.17-.49-.36s.19-.36.49-.36c2,0,3.17-.89,3.17-3.5V581.17c0-2.61-1.14-3.49-3.17-3.49-.3,0-.49-.17-.49-.36s.19-.36.49-.36c1.63,0,3.33.09,4.94.09s3.33-.09,4.93-.09c.33,0,.53.16.53.36s-.2.36-.53.36c-2,0-3.14.88-3.14,3.49v14.46c0,1.24.46,1.7,1.67,1.7Z" transform="translate(-248.15 -233.9)"></path><path fill="#02314B" d="M514.22,595a1.14,1.14,0,0,0-1.21-.75H501.57a1.14,1.14,0,0,0-1.21.75l-.3.69a4.5,4.5,0,0,0-.52,1.87c0,1.11.85,1.6,2.58,1.6.33,0,.53.16.53.36s-.2.36-.53.36c-1.6,0-3-.1-4.64-.1s-2.91.1-4.54.1c-.3,0-.49-.17-.49-.36s.19-.36.49-.36c1.53,0,2.55-1,3.66-3.47l6.31-14.16a6.11,6.11,0,0,0,.65-2.29c0-1.08-.75-1.53-2.25-1.53-.33,0-.49-.17-.49-.36s.16-.36.49-.36c2.15,0,4,.09,6.18.09s4-.09,6.14-.09c.33,0,.53.16.53.36s-.2.36-.53.36c-1.47,0-2.25.45-2.25,1.57a6.15,6.15,0,0,0,.65,2.25l6.35,14.16c1.08,2.45,2.09,3.47,3.63,3.47.32,0,.52.16.52.36s-.2.36-.52.36c-1.61,0-3.08-.1-4.71-.1s-3.24.1-4.88.1c-.29,0-.49-.17-.49-.36s.2-.36.49-.36c1.74,0,2.59-.49,2.59-1.6a4.89,4.89,0,0,0-.49-1.87Zm-6.14-14c-.36-.82-.5-1-.79-1s-.42.19-.78,1l-4.29,9.75a1,1,0,0,0-.13.45c0,.3.2.4.59.4h9.19c.42,0,.62-.1.62-.4a1,1,0,0,0-.13-.45Z" transform="translate(-248.15 -233.9)"></path><path fill="#02314B" d="M564.36,581a.54.54,0,0,0-.43-.26c-.16,0-.29.16-.29.52v14.39c0,2.61,1.15,3.5,3.17,3.5.3,0,.49.16.49.36s-.19.36-.49.36c-1.57,0-3.2-.1-4.81-.1s-3.2.1-4.77.1c-.29,0-.49-.17-.49-.36s.2-.36.49-.36c2,0,3.17-.89,3.17-3.5V581.17c0-2.61-1.14-3.49-3.17-3.49-.29,0-.49-.17-.49-.36s.2-.36.49-.36c1.18,0,2.49.09,3.66.09s2.42-.06,3.6-.06a1.44,1.44,0,0,1,1.41.65l12.49,15.83a.46.46,0,0,0,.39.26c.13,0,.26-.13.26-.46v-12.1c0-2.61-1.14-3.49-3.17-3.49-.33,0-.49-.17-.49-.36s.16-.36.49-.36c1.57,0,3.24.09,4.77.09s3.21-.09,4.81-.09c.3,0,.49.16.49.36s-.19.36-.49.36c-2,0-3.17.88-3.17,3.49v14.46c0,2.61,1.14,3.5,3.17,3.5.3,0,.49.16.49.36s-.19.36-.49.36c-1.6,0-3.2-.1-4.81-.1s-3.2.1-4.77.1c-.33,0-.49-.17-.49-.36s.16-.36.49-.36c1.14,0,2-.2,2-.79a1.16,1.16,0,0,0-.26-.65Z" transform="translate(-248.15 -233.9)"></path><path fill="#02314B" d="M634.77,600.3c-7.59,0-13.24-4.67-13.24-11.9s5.65-11.9,13.24-11.9S648,581.17,648,588.4,642.36,600.3,634.77,600.3Zm9.16-11.57c0-6-3.57-9.71-9.16-9.71s-9.15,3.73-9.15,9.06c0,6,3.56,9.71,9.15,9.71S643.93,594.06,643.93,588.73Z" transform="translate(-248.15 -233.9)"></path><rect class="cls-2" x="248.15" y="525.16" width="487.93" height="17" transform="translate(736.07 833.42) rotate(180)"></rect><rect class="cls-3" x="575.06" y="525.16" width="161.02" height="17" transform="translate(1062.99 833.42) rotate(180)"></rect><rect class="cls-4" x="248.15" y="525.16" width="161.02" height="17" transform="translate(409.16 833.42) rotate(180)"></rect></svg>